<svg width="16" height="16" viewBox="0 0 16 16" fill="none" xmlns="http://www.w3.org/2000/svg">
<g clip-path="url(#clip0_2249_1106)">
<path d="M8.24346 10.0961C8.24346 8.78195 7.65735 7.81055 6.44647 7.44646C7.32996 6.99774 7.79071 6.3179 7.79071 5.26046C7.79071 3.17545 6.32912 2.66699 4.64282 2.66699H0V13.1354H4.77284C6.56249 13.1354 8.24346 12.2231 8.24346 10.0961ZM2.16438 4.45405H4.19541C4.97621 4.45405 5.679 4.68729 5.679 5.65016C5.679 6.53906 5.13224 6.89676 4.35877 6.89676H2.16438V4.45405ZM2.16372 11.3576V8.47474H4.5228C5.47563 8.47474 6.07841 8.89715 6.07841 9.96952C6.07841 11.027 5.35895 11.3576 4.47812 11.3576H2.16372Z" fill="white"/>
<path d="M12.5328 13.3336C14.2358 13.3336 15.3387 12.518 15.8694 10.7843H14.1411C13.9551 11.4314 13.1883 11.7734 12.5935 11.7734C11.446 11.7734 10.8432 11.0588 10.8432 9.84416H15.9861C16.1488 7.41354 14.8793 5.34204 12.5322 5.34204C10.3591 5.34204 8.88421 7.0786 8.88421 9.35349C8.88421 11.7144 10.2818 13.3336 12.5328 13.3336ZM12.4715 6.91504C13.455 6.91504 13.9498 7.52946 14.0324 8.53427H10.8459C10.9106 7.53799 11.5327 6.91504 12.4715 6.91504Z" fill="white"/>
<path d="M10.4467 3.21704H14.4394V4.24818H10.4467V3.21704Z" fill="white"/>
</g>
<defs>
<clipPath id="clip0_2249_1106">
<rect width="16" height="16" fill="white"/>
</clipPath>
</defs>
</svg>
