<svg width="14" height="14" viewBox="0 0 14 14" fill="none" xmlns="http://www.w3.org/2000/svg">
<path d="M11.6257 2.21618L11.5321 2.11422C10.3148 0.814 8.58413 0 6.66667 0C5.90373 0 5.17049 0.1292 4.4872 0.366222L4.41778 0.390711C2.18613 1.19284 0.502356 3.15329 0.0951111 5.54351C0.0946222 5.54578 0.0939111 5.54796 0.0934667 5.55022C0.092 5.55782 0.0914222 5.56538 0.0902222 5.57298C0.0312 5.92898 0 6.29422 0 6.66667C0 8.256 0.559378 9.71698 1.49116 10.8638C1.4916 10.8644 1.56876 10.9575 1.56876 10.9575C2.79267 12.4092 4.62364 13.3333 6.66667 13.3333C7.43871 13.3333 8.18036 13.201 8.87058 12.9585C8.88876 12.9529 8.90662 12.9467 8.92409 12.9396C11.1138 12.1492 12.7744 10.243 13.2164 7.9108C13.2176 7.90511 13.2187 7.89947 13.2197 7.89378C13.294 7.49587 13.3333 7.08582 13.3333 6.66667C13.3333 4.95778 12.6868 3.39724 11.6257 2.21618ZM6.66667 1.33333C8.03778 1.33333 9.2896 1.85356 10.2354 2.7068C9.57307 3.61422 8.64698 4.21093 7.63262 4.59582C7.46351 4.20098 7.29462 3.84311 7.13271 3.52413C6.66333 2.5996 6.20253 1.8912 5.84316 1.39693C6.11169 1.35516 6.38662 1.33333 6.66667 1.33333ZM4.47716 1.80373C4.8748 2.30071 5.62916 3.356 6.34151 4.97173C4.47107 5.37298 2.55307 5.23996 1.5616 5.12227C2.01013 3.64267 3.08529 2.43289 4.47716 1.80373ZM1.33333 6.66667C1.33333 6.59089 1.33533 6.5156 1.33844 6.44058C1.86978 6.50702 2.65764 6.57916 3.57627 6.57916C4.02107 6.57916 4.49662 6.56222 4.98809 6.51956C5.64316 6.46267 6.26071 6.36436 6.83982 6.22716C6.96716 6.5856 7.0896 6.964 7.20427 7.36316C6.60351 7.53791 5.98307 7.75622 5.34351 8.01849C3.96462 8.58382 2.84031 9.21662 2.21267 9.5968C1.6572 8.75524 1.33333 7.74813 1.33333 6.66667ZM6.66667 12C5.29453 12 4.04187 11.479 3.09578 10.6246C3.98547 10.1019 5.65573 9.2108 7.53058 8.65973C7.7396 9.6216 7.89791 10.6809 7.97796 11.8367C7.55836 11.9432 7.11902 12 6.66667 12ZM9.27458 11.3174C9.18093 10.2425 9.02276 9.25147 8.82449 8.34671C9.80609 8.16373 10.8068 8.10929 11.7519 8.27524C11.34 9.57444 10.443 10.6596 9.27458 11.3174ZM11.9916 6.96311C10.9333 6.77489 9.76627 6.80387 8.49893 7.04853C8.37733 6.62044 8.24809 6.21693 8.11493 5.83738C9.36627 5.35862 10.3789 4.65351 11.122 3.73858C11.6767 4.57964 12 5.58604 12 6.66667C12 6.76613 11.9971 6.86493 11.9916 6.96311Z" fill="white"/>
</svg>
