<svg width="16" height="16" viewBox="0 0 16 16" fill="none" xmlns="http://www.w3.org/2000/svg">
<path d="M11.7086 0.670044L9.85713 0.666992C7.77703 0.666992 6.43277 2.08372 6.43277 4.27648V5.94069H4.57116C4.4103 5.94069 4.28003 6.07466 4.28003 6.23991V8.65116C4.28003 8.81641 4.41044 8.95022 4.57116 8.95022H6.43277V15.0346C6.43277 15.1998 6.56304 15.3337 6.7239 15.3337H9.15277C9.31364 15.3337 9.4439 15.1997 9.4439 15.0346V8.95022H11.6206C11.7814 8.95022 11.9117 8.81641 11.9117 8.65116L11.9126 6.23991C11.9126 6.16056 11.8818 6.08458 11.8273 6.02843C11.7728 5.97228 11.6985 5.94069 11.6213 5.94069H9.4439V4.52992C9.4439 3.85184 9.6012 3.50762 10.4611 3.50762L11.7083 3.50716C11.8691 3.50716 11.9993 3.37319 11.9993 3.2081V0.969105C11.9993 0.804164 11.8692 0.670349 11.7086 0.670044Z" fill="white"/>
</svg>
