<svg width="16" height="16" viewBox="0 0 16 16" fill="none" xmlns="http://www.w3.org/2000/svg">
<path fill-rule="evenodd" clip-rule="evenodd" d="M7.9995 13.2715C4.93345 11.5252 3.22342 9.78955 2.39651 8.28361C1.55017 6.74228 1.62401 5.4441 2.09365 4.52273C3.05896 2.62892 5.80403 2.02333 7.47654 4.13865L7.99946 4.80001L8.52242 4.13868C10.1952 2.02327 12.9404 2.62896 13.9057 4.52273C14.3754 5.44408 14.4492 6.74226 13.6028 8.28359C12.7758 9.78954 11.0657 11.5252 7.9995 13.2715ZM7.99952 2.73726C5.64671 0.501518 2.17579 1.42555 0.905732 3.91723C0.208704 5.2847 0.199183 7.05212 1.22778 8.92536C2.24724 10.782 4.27985 12.7417 7.677 14.6194L7.99949 14.7976L8.32198 14.6194C11.7193 12.7417 13.752 10.782 14.7715 8.92537C15.8002 7.05214 15.7907 5.28472 15.0936 3.91723C13.8236 1.4255 10.3525 0.501552 7.99952 2.73726Z" fill="#F52F6E"/>
</svg>
