<svg width="16" height="16" viewBox="0 0 16 16" fill="none" xmlns="http://www.w3.org/2000/svg">
<path d="M14.6535 5.25304C14.6223 4.54459 14.5077 4.05754 14.3436 3.6355C14.1743 3.18752 13.9139 2.78644 13.5726 2.45302C13.2392 2.11441 12.8355 1.8513 12.3927 1.68464C11.9682 1.52052 11.4837 1.40596 10.7752 1.37472C10.0615 1.34084 9.8349 1.33301 8.02465 1.33301C6.2144 1.33301 5.98782 1.34084 5.27672 1.37208C4.56827 1.40331 4.08122 1.51798 3.65928 1.68199C3.2112 1.8513 2.81012 2.11177 2.4767 2.45302C2.13809 2.78644 1.87508 3.19016 1.70832 3.63296C1.54421 4.05754 1.42964 4.54195 1.3984 5.2504C1.36452 5.96414 1.35669 6.19073 1.35669 8.00098C1.35669 9.81122 1.36452 10.0378 1.39576 10.7489C1.427 11.4574 1.54166 11.9444 1.70578 12.3665C1.87508 12.8144 2.13809 13.2155 2.4767 13.5489C2.81012 13.8875 3.21384 14.1507 3.65663 14.3173C4.08122 14.4814 4.56562 14.596 5.27418 14.6272C5.98517 14.6586 6.21186 14.6663 8.02211 14.6663C9.83235 14.6663 10.0589 14.6586 10.77 14.6272C11.4785 14.596 11.9655 14.4814 12.3875 14.3173C13.2835 13.9709 13.992 13.2624 14.3384 12.3665C14.5024 11.9419 14.6171 11.4574 14.6483 10.7489C14.6796 10.0378 14.6874 9.81122 14.6874 8.00098C14.6874 6.19073 14.6848 5.96414 14.6535 5.25304ZM13.4528 10.6968C13.4242 11.348 13.3148 11.6996 13.2236 11.934C12.9996 12.5149 12.5386 12.9759 11.9577 13.1999C11.7233 13.2911 11.3691 13.4005 10.7205 13.4291C10.0172 13.4604 9.80631 13.4681 8.02729 13.4681C6.24828 13.4681 6.03472 13.4604 5.334 13.4291C4.68283 13.4005 4.3312 13.2911 4.09678 13.1999C3.80773 13.0931 3.54461 12.9238 3.33105 12.7024C3.10965 12.4862 2.94035 12.2257 2.83352 11.9367C2.74235 11.7023 2.63298 11.348 2.60439 10.6995C2.57305 9.9962 2.56532 9.78518 2.56532 8.00617C2.56532 6.22715 2.57305 6.01359 2.60439 5.31297C2.63298 4.6618 2.74235 4.31017 2.83352 4.07575C2.94035 3.78659 3.10965 3.52358 3.3337 3.30992C3.5498 3.08852 3.81027 2.91921 4.09943 2.81248C4.33385 2.72132 4.68813 2.61194 5.33665 2.58325C6.03991 2.55202 6.25093 2.54418 8.02984 2.54418C9.81149 2.54418 10.0224 2.55202 10.7231 2.58325C11.3743 2.61194 11.7259 2.72132 11.9603 2.81248C12.2494 2.91921 12.5125 3.08852 12.7261 3.30992C12.9475 3.52612 13.1168 3.78659 13.2236 4.07575C13.3148 4.31017 13.4242 4.66435 13.4528 5.31297C13.4841 6.01623 13.4919 6.22715 13.4919 8.00617C13.4919 9.78518 13.4841 9.99355 13.4528 10.6968Z" fill="white"/>
<path d="M8.02465 4.57583C6.13371 4.57583 4.5995 6.10994 4.5995 8.00098C4.5995 9.89202 6.13371 11.4261 8.02465 11.4261C9.91568 11.4261 11.4498 9.89202 11.4498 8.00098C11.4498 6.10994 9.91568 4.57583 8.02465 4.57583ZM8.02465 10.2228C6.79791 10.2228 5.80284 9.22783 5.80284 8.00098C5.80284 6.77414 6.79791 5.77917 8.02465 5.77917C9.25149 5.77917 10.2465 6.77414 10.2465 8.00098C10.2465 9.22783 9.25149 10.2228 8.02465 10.2228Z" fill="white"/>
<path d="M12.385 4.44041C12.385 4.88198 12.0269 5.24003 11.5852 5.24003C11.1437 5.24003 10.7856 4.88198 10.7856 4.44041C10.7856 3.99873 11.1437 3.64079 11.5852 3.64079C12.0269 3.64079 12.385 3.99873 12.385 4.44041Z" fill="white"/>
</svg>
