<svg width="16" height="16" viewBox="0 0 16 16" fill="none" xmlns="http://www.w3.org/2000/svg">
<path d="M15 3.8479C14.4847 4.06652 13.9318 4.21479 13.3509 4.28098C13.9441 3.94088 14.3981 3.40143 14.6133 2.76061C14.0569 3.07556 13.4428 3.30426 12.7884 3.42824C12.2644 2.89297 11.519 2.55957 10.6923 2.55957C9.1062 2.55957 7.82018 3.79095 7.82018 5.30881C7.82018 5.52408 7.84555 5.73433 7.89455 5.93539C5.50801 5.82061 3.39178 4.72579 1.97543 3.06216C1.72784 3.4676 1.58699 3.94003 1.58699 4.44432C1.58699 5.39844 2.0944 6.24029 2.86427 6.73283C2.3936 6.71776 1.95093 6.59378 1.56339 6.38771V6.42205C1.56339 7.75395 2.55371 8.86553 3.86682 9.11852C3.62624 9.18051 3.37255 9.21486 3.11009 9.21486C2.92464 9.21486 2.74529 9.19727 2.56944 9.16375C2.93511 10.2569 3.99543 11.0519 5.25171 11.0736C4.26926 11.8108 3.03048 12.2489 1.68499 12.2489C1.45317 12.2489 1.22482 12.2355 1 12.2112C2.27114 12.9928 3.78024 13.4485 5.40218 13.4485C10.6853 13.4485 13.5732 9.25842 13.5732 5.62462L13.5635 5.26861C14.1278 4.88325 14.6159 4.39909 15 3.8479Z" fill="white"/>
</svg>
